Coordinates
version=1
nRows=16
nColumns=22
inDegrees=yes

Units are S.I. units (second, meters, Newtons, ...)
If the header above contains a line with 'inDegrees', this indicates whether rotational values are in degrees (yes) or radians (no).

endheader
time	pelvis_tilt	pelvis_list	pelvis_rotation	pelvis_tx	pelvis_ty	pelvis_tz	hip_flexion_r	hip_adduction_r	hip_rotation_r	knee_angle_r	ankle_angle_r	subtalar_angle_r	hip_flexion_l	hip_adduction_l	hip_rotation_l	knee_angle_l	ankle_angle_l	subtalar_angle_l	lumbar_extension	lumbar_bending	lumbar_rotation
      2.08000000	     -1.69640534	     -0.24113521	    129.25096543	     -0.37365486	      1.00779610	      0.62721175	     24.57082129	     -0.42991826	    -15.89170632	    -31.76823994	     10.68769349	      3.03153172	     -0.67791525	      2.34652725	     -9.73794216	    -15.70155091	     16.23466730	     -0.48321930	    -16.25660726	     -2.85235650	     -0.79421003
      2.09000000	     -1.72318849	     -0.16972192	    128.82580283	     -0.37737234	      1.00716287	      0.62247869	     24.71660271	     -0.32691657	    -17.51467175	    -30.18149896	     10.48023050	      3.39134625	     -1.23247169	      2.37337299	    -10.12596942	    -15.58328354	     16.52828313	     -0.44886764	    -16.36304769	     -2.77798684	     -0.96923401
      2.10000000	     -1.70005739	     -0.15437616	    128.48025948	     -0.38107132	      1.00632800	      0.61781970	     24.92765068	     -0.20896078	    -19.13931913	    -28.62941368	     10.21233133	      3.70821369	     -1.66241232	      2.38890243	    -10.43597272	    -15.53377939	     16.85434613	     -0.43391098	    -16.40022083	     -2.67960740	     -1.21402431
      2.11000000	     -1.74888328	     -0.08300535	    128.17564970	     -0.38480956	      1.00557163	      0.61314636	     25.02179641	     -0.10514287	    -20.74171627	    -27.12260072	      9.99106492	      4.17318728	     -2.20177469	      2.43392397	    -10.67323784	    -15.45636941	     17.15035886	     -0.38201781	    -16.55192268	     -2.59114844	     -1.46426733
      2.12000000	     -1.77139752	     -0.06193859	    127.92195588	     -0.38855727	      1.00463895	      0.60847243	     25.16596060	     -0.00194024	    -22.27738488	    -25.67479864	      9.73898035	      4.55339302	     -2.64558437	      2.47920926	    -10.89049679	    -15.44204242	     17.46657743	     -0.33994265	    -16.64591676	     -2.49895983	     -1.78366465
      2.13000000	     -1.78850152	     -0.06382955	    127.69975431	     -0.39235414	      1.00359383	      0.60373496	     25.31555687	      0.10472678	    -23.69905964	    -24.28325849	      9.47731466	      4.85057441	     -3.04945018	      2.52775773	    -11.09566422	    -15.46612262	     17.79628576	     -0.30348159	    -16.71039639	     -2.40183468	     -2.15930792
      2.14000000	     -1.84425992	     -0.02974201	    127.47524849	     -0.39622624	      1.00257049	      0.59881581	     25.38534705	      0.21918961	    -24.98312125	    -22.95989487	      9.27197135	      5.15481708	     -3.54108767	      2.59007348	    -11.27979800	    -15.44973950	     18.11583894	     -0.23472232	    -16.82278064	     -2.31327376	     -2.51253477
      2.15000000	     -1.90908615	      0.00887285	    127.22993719	     -0.40019559	      1.00149028	      0.59369082	     25.42384796	      0.34957304	    -26.06205282	    -21.71584533	      9.07724693	      5.37165189	     -4.05101986	      2.65822910	    -11.48950655	    -15.44708372	     18.43397221	     -0.15442308	    -16.92223826	     -2.22279039	     -2.83389244
      2.16000000	     -1.99636731	      0.08478593	    126.93872139	     -0.40424078	      1.00042791	      0.58825712	     25.38286208	      0.51809545	    -26.88952315	    -20.54515514	      8.91601733	      5.49633146	     -4.64489621	      2.72783310	    -11.73485931	    -15.41116333	     18.73677673	     -0.03503191	    -17.04095632	     -2.13736693	     -3.09826541
      2.17000000	     -2.10157425	      0.17889508	    126.58214212	     -0.40836850	      0.99934874	      0.58248780	     25.29188205	      0.71007810	    -27.43949627	    -19.48455812	      8.76715921	      5.47231633	     -5.29828487	      2.81006745	    -12.04867012	    -15.35735752	     19.02396619	      0.12338345	    -17.15299085	     -2.06685077	     -3.27246218
      2.18000000	     -2.17707440	      0.28017074	    126.17294943	     -0.41256686	      0.99820302	      0.57636924	     25.17777884	      0.95904873	    -27.68742600	    -18.52250288	      8.63577554	      5.29963373	     -5.95895835	      2.86755960	    -12.41986245	    -15.31024794	     19.30507638	      0.28668001	    -17.21290004	     -1.97444224	     -3.38244222
      2.19000000	     -2.22428676	      0.37949011	    125.71378968	     -0.41683565	      0.99697824	      0.56991532	     25.05829368	      1.24291988	    -27.65337888	    -17.70049344	      8.51439379	      5.03360879	     -6.61552983	      2.90939476	    -12.84607690	    -15.27814854	     19.59162709	      0.44455770	    -17.21279249	     -1.86835627	     -3.41349358
      2.20000000	     -2.27165116	      0.51756350	    125.27760501	     -0.42118295	      0.99578795	      0.56325348	     24.86846817	      1.53692104	    -27.40672150	    -17.00811675	      8.42592092	      4.60831546	     -7.30707065	      2.92952153	    -13.21657642	    -15.26989686	     19.85108917	      0.69583795	    -17.23611644	     -1.73315689	     -3.44168600
      2.21000000	     -2.23838499	      0.61718606	    124.88370939	     -0.42559113	      0.99444203	      0.55650636	     24.76258972	      1.83181288	    -27.02261412	    -16.52096206	      8.29523086	      4.25950736	     -7.86897166	      2.88863802	    -13.59040745	    -15.36146046	     20.14602040	      0.86186623	    -17.16263964	     -1.53353359	     -3.46358627
      2.22000000	     -2.20463919	      0.75277681	    124.64279925	     -0.43009629	      0.99317584	      0.54981661	     24.59804339	      2.08065261	    -26.60528923	    -16.18645357	      8.14682074	      3.76923423	     -8.40036421	      2.79494357	    -13.79291687	    -15.56605504	     20.40149343	      1.15095771	    -17.14330402	     -1.28105347	     -3.59420776
      2.23000000	     -2.09215519	      0.85067923	    124.53452181	     -0.43468564	      0.99182192	      0.54319836	     24.51713068	      2.29962470	    -26.20242670	    -16.05695547	      7.89228763	      3.43100538	     -8.77956891	      2.61922303	    -13.89148568	    -15.89503584	     20.69734714	      1.34883720	    -17.04814493	     -0.94836843	     -3.81098870
